<?xml version="1.0" encoding="UTF-8"?>
<!-- Generator: Adobe Illustrator 23.0.1, SVG Export Plug-In . SVG Version: 6.00 Build 0)  -->
<!DOCTYPE svg PUBLIC "-//W3C//DTD SVG 1.1//EN" "http://www.w3.org/Graphics/SVG/1.1/DTD/svg11.dtd">
<svg version="1.1" id="Livello_1" xmlns:x="http://ns.adobe.com/Extensibility/1.0/" xmlns:i="http://ns.adobe.com/AdobeIllustrator/10.0/" xmlns:graph="http://ns.adobe.com/Graphs/1.0/" xmlns="http://www.w3.org/2000/svg" xmlns:xlink="http://www.w3.org/1999/xlink" x="0px" y="0px" viewBox="0 0 838 837.3" style="enable-background:new 0 0 838 837.3;" xml:space="preserve"><script xmlns="" id="__gaOptOutExtension"/>
<style type="text/css">
	.st0{fill-rule:evenodd;clip-rule:evenodd;}
</style>
<metadata>
	<sfw xmlns="http://ns.adobe.com/SaveForWeb/1.0/">
		<slices/>
		<sliceSourceBounds bottomLeftOrigin="true" height="837.2" width="838.1" x="0" y="0.1"/>
	</sfw>
</metadata>
<g>
	<rect x="175.6" y="293.5" class="st0" width="27.1" height="96.3"/>
	<path class="st0" d="M192.7,239.1c14.6,0,27.8-4.2,38.7-15.1l-15.9-17.9c-6.9,7.1-16.2,9.8-22.8,9.8c-18.9,0-25.6-14-25.7-26.5   c-0.1-12.6,7.2-27.7,25.7-27.7c6.6,0,13.8,1.7,20.6,8.4l16.8-16.6c-10.9-10.5-23.4-15.3-37.4-15.3c-36.1,0-52.8,26.3-52.7,51.1   C140.1,215.4,154.8,239.1,192.7,239.1z"/>
	<path class="st0" d="M171.6,512l-0.5-21l40.2,51.8h23v-96.3H207v33c0.1,3.8,0.1,8.2,0.8,19.7l-40.7-52.7H144v96.3h27.6V512z"/>
	<polygon class="st0" points="227.7,672.8 177.5,672.8 177.5,658.2 223,658.2 223,636.1 177.4,636.1 177.4,622.4 225.8,622.4    225.8,599.5 150.6,599.5 150.6,695.8 227.7,695.8  "/>
	<path class="st0" d="M831.3,337.4C795.7,154.8,641.3,14.6,451.8,0.2L448.1,0h-57.2l-3.7,0.2C170.5,16.7,0,197.4,0,418.1   c0,231.5,187.7,419.2,419.6,419.1c202.7,0,371.9-143.7,411-334.7l7.5-74.7v-20.1L831.3,337.4z M253.4,711.8H124.9V583.5h128.5   V711.8z M253.4,558.9H124.9V430.4h128.5V558.9z M253.4,405.9H124.9V277.6h128.5V405.9z M253.4,252.8H124.9V124.6h128.5V252.8z    M732,614.3h-19.1v97.5h-70.8v-97H511.5c-1.7,41.4-8.4,60.1-24,75.8c-18.5,18.3-52.6,27.9-90.2,27.9   c-79.6,0-115.4-32.4-115.4-106.5v-74.1h71.7v63.8c0,43.6,11.3,58.4,41.9,58.4c33.2,0,45.5-14.8,45.5-57.6v-96.8   c0-58.7-1.3-63-70-63h-32.3v-56.2l91-190.5H281.8v-71.7h229.9V196l-95.2,190.6c0.4,0,45,0.1,45.4,0.1c48.4-0.3,50.4,27.3,50.1,84.9   l94.2-347.3h106.6v381.8v47.6v0H732V614.3z"/>
	<polygon class="st0" points="641.2,553.7 641.2,205.5 561.5,553.7  "/>
</g>
</svg>